<?xml version="1.0" encoding="UTF-8" standalone="no"?>
<!DOCTYPE svg PUBLIC "-//W3C//DTD SVG 1.1//EN" "http://www.w3.org/Graphics/SVG/1.1/DTD/svg11.dtd">
<svg width="100%" height="100%" viewBox="0 0 424 113" version="1.1" xmlns="http://www.w3.org/2000/svg" xmlns:xlink="http://www.w3.org/1999/xlink" xml:space="preserve" xmlns:serif="http://www.serif.com/" style="fill-rule:evenodd;clip-rule:evenodd;stroke-linejoin:round;stroke-miterlimit:2;">
    <rect id="ArtBoard1" x="0" y="0" width="423.26" height="112.293" style="fill:none;"/>
    <g id="ArtBoard11" serif:id="ArtBoard1">
        <g id="Ebene-1" serif:id="Ebene 1">
            <path id="path6356" d="M370.819,49.248L346.825,0L369.828,0L384.502,32.544L384.898,32.544L399.969,0L420.592,0L396.598,49.248L423.26,112.293L402.03,109.994L382.915,65.664L382.519,65.664L363.533,106.908L343.829,105.496L370.819,49.248ZM313.511,0L335.324,0L335.061,105.003L313.412,103.591L313.511,0ZM232.01,0L254.021,0L268.299,78.192L268.695,78.192L282.973,0L303.001,0L281.751,102.113L252.931,101.063L232.01,0ZM178.668,0L200.48,0L200.48,86.4L236.373,86.4L236.373,100.8L178.668,100.504L178.668,0ZM106.685,0L166.175,0L166.175,14.4L128.498,14.4L128.498,41.04L158.441,41.04L158.441,55.44L128.498,55.44L128.498,86.4L166.175,86.4L166.207,100.636L106.751,102.456L106.685,0ZM0,0L31.133,0L45.014,72.144L45.41,72.144L59.291,0L90.424,0L90.424,103.445L69.801,104.915L69.801,24.48L69.405,24.48L52.708,106.14L36.767,107.609L19.433,24.48L19.037,24.48L19.133,109.504L0.017,111.789L0,0Z" style="fill:rgb(229,9,20);fill-rule:nonzero;"/>
        </g>
    </g>
</svg>
